<?xml version="1.0" standalone="no"?>
<!DOCTYPE svg PUBLIC "-//W3C//DTD SVG 20010904//EN"
 "http://www.w3.org/TR/2001/REC-SVG-20010904/DTD/svg10.dtd">
<svg version="1.0" xmlns="http://www.w3.org/2000/svg"
 width="2000.000000pt" height="2000.000000pt" viewBox="0 0 2000.000000 2000.000000"
 preserveAspectRatio="xMidYMid meet">
<metadata>
Created by potrace 1.16, written by Peter Selinger 2001-2019
</metadata>
<g transform="translate(0.000000,2000.000000) scale(0.100000,-0.100000)"
fill="#000000" stroke="none">
<path d="M4875 15829 c-297 -44 -554 -250 -660 -532 -52 -140 -56 -201 -53
-755 4 -486 5 -510 26 -587 80 -291 299 -513 589 -597 l78 -23 5145 0 5145 0
78 23 c293 85 506 301 589 597 21 77 22 99 26 587 3 425 1 522 -12 597 -57
330 -285 580 -615 674 l-76 22 -5100 1 c-2858 1 -5126 -2 -5160 -7z"/>
<path d="M4826 11654 c-307 -66 -538 -281 -632 -589 l-28 -90 -4 -499 c-4
-538 1 -616 44 -746 42 -125 99 -215 204 -320 140 -140 285 -213 473 -239 111
-15 10123 -15 10234 0 188 26 333 99 473 239 105 105 162 195 204 320 43 130
48 208 44 746 l-4 499 -28 90 c-95 311 -327 525 -639 589 -69 14 -566 16
-5174 15 -4453 -1 -5107 -2 -5167 -15z"/>
<path d="M4797 7479 c-88 -21 -203 -72 -271 -118 -170 -117 -302 -313 -348
-516 -10 -46 -13 -184 -13 -600 0 -615 -2 -601 85 -780 109 -226 309 -387 550
-445 85 -20 97 -20 5200 -20 5096 0 5115 0 5200 20 47 11 126 41 175 65 172
86 291 207 375 380 87 179 85 164 85 785 0 538 0 546 -23 629 -83 304 -313
529 -614 601 -82 20 -121 20 -5203 19 -5008 0 -5122 -1 -5198 -20z"/>
</g>
</svg>
